<?xml version="1.0" encoding="UTF-8" standalone="no"?><!DOCTYPE svg PUBLIC "-//W3C//DTD SVG 1.1//EN" "http://www.w3.org/Graphics/SVG/1.1/DTD/svg11.dtd"><svg width="100%" height="100%" viewBox="0 0 4166 1000" version="1.1" xmlns="http://www.w3.org/2000/svg" xmlns:xlink="http://www.w3.org/1999/xlink" xml:space="preserve" xmlns:serif="http://www.serif.com/" style="fill-rule:evenodd;clip-rule:evenodd;stroke-linejoin:round;stroke-miterlimit:2;"><rect id="Texto-Color" serif:id="Texto Color" x="0" y="-0" width="4165.757" height="999.491" style="fill:none;"/><clipPath id="_clip1"><rect x="0" y="-0" width="4165.757" height="999.491"/></clipPath><g clip-path="url(#_clip1)"><g id="Isotype"><path d="M673.069,984.86l-423.662,-619.924l62.384,-364.936l418.407,612.216l-57.129,372.643Z" style="fill:#ffca28;"/><path d="M311.791,349.836l-0,635.024l-213.305,0c-26.12,-0 -51.17,-10.376 -69.64,-28.846c-18.47,-18.47 -28.846,-43.52 -28.846,-69.64l0,-787.872c-0,-19.11 5.554,-37.658 15.769,-53.469c2.363,-3.658 4.976,-7.169 7.827,-10.507c1.669,-1.954 3.42,-3.849 5.25,-5.68c3.405,-3.405 7.034,-6.535 10.852,-9.376l272.093,330.365Z" style="fill:#00bcd4;"/><path d="M23.596,34.525c1.669,-1.954 3.42,-3.849 5.25,-5.68c18.47,-18.47 43.52,-28.846 69.64,-28.846l213.305,-0l0,456.217l-288.195,-421.692Z" style="fill:#4caf50;"/><path d="M673.069,642.423l-0,-642.423l213.305,0c26.12,0 51.17,10.376 69.64,28.846c18.47,18.47 28.846,43.52 28.846,69.64l0,787.872c0,17.723 -4.777,34.971 -13.619,49.997c-2.896,4.922 -6.228,9.605 -9.971,13.988c-1.671,1.957 -3.424,3.854 -5.256,5.686c-2.191,2.191 -4.475,4.269 -6.842,6.228l-276.102,-319.834Z" style="fill:#f44336;"/><path d="M673.069,528.619l288.201,421.724c-1.671,1.957 -3.424,3.854 -5.256,5.686c-18.06,18.06 -42.413,28.382 -67.905,28.831l-215.04,-0l0,-456.24Z" style="fill:#ff9800;"/></g><path d="M1400.251,645.42c1.284,2.536 2.632,5.034 4.045,7.495c15.49,26.982 38.475,47.969 68.955,62.959c30.48,14.99 68.206,22.485 113.176,22.485c29.981,0 55.714,-3.748 77.2,-11.243c21.486,-7.495 44.221,-19.737 68.206,-36.726l139.409,196.372c-36.976,28.981 -73.202,51.467 -108.679,67.456c-35.477,15.99 -70.454,27.482 -104.932,34.478c-34.478,6.995 -69.705,10.493 -105.681,10.493c-92.94,0 -172.888,-17.988 -239.844,-53.965c-66.956,-35.977 -118.423,-85.195 -154.4,-147.654c-35.977,-62.459 -53.965,-134.163 -53.965,-215.11c0,-59.961 9.994,-115.425 29.981,-166.392c19.987,-50.967 48.219,-95.188 84.695,-132.664c36.476,-37.476 79.448,-66.457 128.916,-86.943c49.468,-20.487 103.683,-30.73 162.644,-30.73c58.962,0 112.677,10.243 161.145,30.73c48.468,20.487 90.191,49.468 125.169,86.943c34.977,37.476 61.71,81.697 80.198,132.664c18.488,50.967 26.733,106.431 24.734,166.392l-1.499,62.959l-499.473,0Zm229.608,-142.407c-0.476,-17.756 -5.21,-33.496 -14.201,-47.219c-9.494,-14.491 -22.735,-25.733 -39.724,-33.728c-16.989,-7.995 -36.976,-11.992 -59.961,-11.992c-28.981,0 -53.465,5.996 -73.452,17.988c-19.987,11.992 -35.227,28.981 -45.72,50.967c-3.568,7.475 -6.529,15.47 -8.883,23.984l241.942,0Z" style="fill:#212121;"/><path d="M2342.274,794.732l-83.991,189.467l-356.768,0l284.243,-414.035l-270.752,-387.944l356.768,0l89.752,165.905l73.642,-165.905l356.768,0l-270.036,394.007l277.531,407.971l-356.768,0l-100.389,-189.467Z" style="fill:#212121;"/><rect x="2924.413" y="182.221" width="304.302" height="801.979" style="fill:#212121;fill-rule:nonzero;"/><path d="M3653.099,263.266c0.74,-0.785 1.487,-1.567 2.24,-2.346c28.481,-29.481 62.709,-52.716 102.683,-69.705c39.974,-16.989 82.446,-25.483 127.417,-25.483c59.961,0 110.928,12.492 152.901,37.476c41.973,24.984 73.702,61.71 95.188,110.178c21.486,48.468 32.229,107.18 32.229,176.135l0,494.678l-304.302,0l0,-469.195c0,-21.986 -3.498,-40.474 -10.493,-55.464c-6.995,-14.99 -17.489,-26.483 -31.48,-34.478c-13.991,-7.995 -30.48,-11.992 -49.468,-11.992c-14.99,0 -28.731,2.249 -41.223,6.746c-12.492,4.497 -23.235,11.243 -32.229,20.237c-8.994,8.994 -15.99,18.988 -20.986,29.981c-4.997,10.993 -7.495,23.485 -7.495,37.476l0,476.69l-304.302,0l0,-801.979l281.817,0l7.504,81.045Z" style="fill:#212121;"/></g></svg>