<?xml version="1.0" encoding="UTF-8" standalone="no"?><!DOCTYPE svg PUBLIC "-//W3C//DTD SVG 1.1//EN" "http://www.w3.org/Graphics/SVG/1.1/DTD/svg11.dtd"><svg width="100%" height="100%" viewBox="0 0 992 1274" version="1.1" xmlns="http://www.w3.org/2000/svg" xmlns:xlink="http://www.w3.org/1999/xlink" xml:space="preserve" xmlns:serif="http://www.serif.com/" style="fill-rule:evenodd;clip-rule:evenodd;stroke-linecap:round;stroke-linejoin:round;stroke-miterlimit:1.5;"><rect id="Imagotipo-Vertical" serif:id="Imagotipo Vertical" x="0" y="0" width="991.739" height="1273.588" style="fill:none;"/><clipPath id="_clip1"><rect x="0" y="0" width="991.739" height="1273.588"/></clipPath><g clip-path="url(#_clip1)"><g><path d="M313.969,459.641l-0,532.32l-214.795,0c-26.303,-0 -51.528,-10.449 -70.127,-29.047c-18.599,-18.599 -29.047,-43.824 -29.047,-70.127l0,-793.376c-0,-23.696 8.48,-46.518 23.76,-64.407l290.208,424.637Z" style="fill:#00bce7;stroke:#00bcd4;stroke-width:0.42px;"/><path d="M313.969,0.222l363.801,532.311l0,459.397l216.542,0l-0.297,0.005l-216.245,0.011l-363.801,-532.32l-0,-459.404Z" style="fill:#ffbc37;stroke:#ffca28;stroke-width:0.42px;"/><path d="M23.76,34.988c1.681,-1.968 3.444,-3.876 5.287,-5.719c18.599,-18.599 43.824,-29.047 70.127,-29.047l214.795,-0l0,459.404l-290.208,-424.637Z" style="fill:#4caf50;stroke:#4caf50;stroke-width:0.42px;"/><path d="M677.77,532.533l0,-532.311l214.795,-0c26.303,0 51.528,10.449 70.127,29.047c18.599,18.599 29.047,43.824 29.047,70.127l0,793.376c0,23.693 -8.478,46.512 -23.755,64.401l-290.214,-424.639Z" style="fill:#f44336;stroke:#f44336;stroke-width:0.42px;"/><path d="M967.984,957.203c-1.682,1.97 -3.447,3.881 -5.293,5.726c-18.187,18.187 -42.709,28.58 -68.379,29.032l-216.542,-0l-0,-459.397l290.214,424.639Z" style="fill:#ff9800;stroke:#ff9800;stroke-width:0.42px;"/></g><g><path d="M160.253,1269.988l-86.018,-125.863l-0,125.866l-50.786,0c-6.219,-0 -12.183,-2.47 -16.581,-6.868c-4.398,-4.398 -6.868,-10.362 -6.868,-16.581l0,-187.587c-0,-5.603 2.005,-11.002 5.618,-15.232c0.397,-0.465 0.814,-0.916 1.25,-1.352c4.398,-4.398 10.362,-6.868 16.581,-6.868l50.786,0l86.018,125.861l-0,-125.861l50.786,0c6.219,0 12.183,2.47 16.581,6.868c4.398,4.398 6.868,10.362 6.868,16.581l0,187.587c0,5.602 -2.005,11.005 -5.617,15.234c-0.398,0.466 -0.815,0.918 -1.251,1.354c-4.3,4.3 -10.098,6.758 -16.168,6.864l-51.2,-0l0,-0.004l51.129,-0.003l0.07,-0.001l-51.2,-0l-0,0.004Z" style="fill:#212121;"/><path d="M333.291,1189.33c0.306,0.604 0.627,1.199 0.963,1.785c3.688,6.424 9.161,11.421 16.418,14.99c7.257,3.569 16.239,5.354 26.947,5.354c7.138,0 13.265,-0.892 18.381,-2.677c5.116,-1.785 10.529,-4.699 16.239,-8.744l33.192,46.755c-8.804,6.9 -17.429,12.254 -25.876,16.061c-8.447,3.807 -16.775,6.543 -24.984,8.209c-8.209,1.666 -16.596,2.498 -25.162,2.498c-22.128,0 -41.163,-4.283 -57.105,-12.849c-15.942,-8.566 -28.196,-20.284 -36.761,-35.155c-8.566,-14.871 -12.849,-31.943 -12.849,-51.216c0,-14.276 2.379,-27.482 7.138,-39.617c4.759,-12.135 11.481,-22.664 20.165,-31.586c8.685,-8.923 18.916,-15.823 30.694,-20.701c11.778,-4.878 24.686,-7.317 38.724,-7.317c14.038,0 26.828,2.439 38.368,7.317c11.54,4.878 21.474,11.778 29.802,20.701c8.328,8.923 14.693,19.451 19.095,31.586c4.402,12.135 6.365,25.34 5.889,39.617l-0.357,14.99l-118.921,0Zm54.668,-33.906c-0.113,-4.228 -1.24,-7.975 -3.381,-11.243c-2.26,-3.45 -5.413,-6.127 -9.458,-8.03c-4.045,-1.904 -8.804,-2.855 -14.276,-2.855c-6.9,0 -12.73,1.428 -17.488,4.283c-4.759,2.855 -8.387,6.9 -10.886,12.135c-0.849,1.78 -1.554,3.683 -2.115,5.711l57.605,0Z" style="fill:#212121;"/><path d="M557.58,1224.881l-19.998,45.111l-84.944,0l67.676,-98.579l-64.464,-92.367l84.944,0l21.369,39.501l17.534,-39.501l84.944,0l-64.294,93.81l66.078,97.135l-84.944,0l-23.902,-45.111Z" style="fill:#212121;"/><rect x="696.183" y="1079.046" width="72.452" height="190.946" style="fill:#212121;fill-rule:nonzero;"/><path d="M869.678,1098.342c0.176,-0.187 0.354,-0.373 0.533,-0.559c6.781,-7.019 14.931,-12.551 24.448,-16.596c9.518,-4.045 19.63,-6.067 30.337,-6.067c14.276,0 26.411,2.974 36.405,8.923c9.993,5.948 17.548,14.693 22.664,26.233c5.116,11.54 7.674,25.519 7.674,41.937l0,117.78l-72.452,0l0,-111.712c0,-5.235 -0.833,-9.637 -2.498,-13.206c-1.666,-3.569 -4.164,-6.305 -7.495,-8.209c-3.331,-1.904 -7.257,-2.855 -11.778,-2.855c-3.569,0 -6.841,0.535 -9.815,1.606c-2.974,1.071 -5.532,2.677 -7.674,4.818c-2.141,2.141 -3.807,4.521 -4.997,7.138c-1.19,2.617 -1.785,5.592 -1.785,8.923l0,113.497l-72.452,0l0,-190.946l67.099,0l1.787,19.296Z" style="fill:#212121;"/></g></g></svg>