<?xml version="1.0" encoding="UTF-8" standalone="no"?><!DOCTYPE svg PUBLIC "-//W3C//DTD SVG 1.1//EN" "http://www.w3.org/Graphics/SVG/1.1/DTD/svg11.dtd"><svg width="100%" height="100%" viewBox="0 0 3749 1000" version="1.1" xmlns="http://www.w3.org/2000/svg" xmlns:xlink="http://www.w3.org/1999/xlink" xml:space="preserve" xmlns:serif="http://www.serif.com/" style="fill-rule:evenodd;clip-rule:evenodd;stroke-linecap:round;stroke-linejoin:round;stroke-miterlimit:1.5;"><rect id="Imagotipo-Horizontal" serif:id="Imagotipo Horizontal" x="0" y="0" width="3748.738" height="1000" style="fill:none;"/><clipPath id="_clip1"><rect x="0" y="0" width="3748.738" height="1000"/></clipPath><g clip-path="url(#_clip1)"><g><path d="M1527.966,828.826l-229.716,-336.124l-0,336.134l-135.629,0c-16.608,-0 -32.536,-6.598 -44.28,-18.341c-11.744,-11.744 -18.341,-27.672 -18.341,-44.28l0,-500.964c-0,-14.962 5.355,-29.382 15.003,-40.679c1.061,-1.243 2.175,-2.447 3.338,-3.611c11.744,-11.744 27.672,-18.341 44.28,-18.341l135.629,0l229.716,336.119l-0,-336.119l135.629,0c16.608,0 32.536,6.598 44.28,18.341c11.744,11.744 18.341,27.672 18.341,44.28l0,500.964c0,14.961 -5.353,29.389 -15,40.684c-1.062,1.244 -2.177,2.45 -3.342,3.615c-11.484,11.484 -26.968,18.047 -43.177,18.332l-136.732,-0l0,-0.01l136.544,-0.007l0.188,-0.003l-136.732,-0l-0,0.01Z" style="fill:#212121;"/><path d="M1990.074,613.424c0.816,1.612 1.674,3.201 2.572,4.766c9.849,17.157 24.464,30.501 43.845,40.032c19.381,9.531 43.368,14.297 71.962,14.297c19.063,0 35.425,-2.383 49.087,-7.149c13.662,-4.766 28.118,-12.55 43.368,-23.352l88.643,124.862c-23.511,18.427 -46.545,32.725 -69.103,42.892c-22.558,10.167 -44.798,17.474 -66.72,21.922c-21.922,4.448 -44.321,6.672 -67.197,6.672c-59.095,0 -109.929,-11.438 -152.503,-34.313c-42.574,-22.875 -75.298,-54.17 -98.174,-93.885c-22.875,-39.714 -34.313,-85.307 -34.313,-136.776c0,-38.126 6.354,-73.392 19.063,-105.799c12.709,-32.407 30.66,-60.525 53.853,-84.353c23.193,-23.829 50.517,-42.256 81.971,-55.282c31.454,-13.026 65.926,-19.539 103.416,-19.539c37.49,0 71.645,6.513 102.463,19.539c30.818,13.026 57.348,31.454 79.588,55.282c22.24,23.829 39.238,51.946 50.993,84.353c11.755,32.407 16.998,67.673 15.727,105.799l-0.953,40.032l-317.587,0Zm145.995,-90.549c-0.303,-11.29 -3.313,-21.298 -9.029,-30.024c-6.037,-9.214 -14.456,-16.362 -25.258,-21.446c-10.802,-5.083 -23.511,-7.625 -38.126,-7.625c-18.427,0 -33.996,3.813 -46.704,11.438c-12.709,7.625 -22.399,18.427 -29.071,32.407c-2.268,4.753 -4.151,9.836 -5.648,15.25l153.837,0Z" style="fill:#212121;"/><path d="M2589.054,708.364l-53.405,120.472l-226.849,0l180.734,-263.261l-172.156,-246.671l226.849,0l57.068,105.49l46.825,-105.49l226.849,0l-171.701,250.527l176.467,259.406l-226.849,0l-63.832,-120.472Z" style="fill:#212121;"/><rect x="2959.203" y="318.902" width="193.489" height="509.933" style="fill:#212121;fill-rule:nonzero;"/><path d="M3422.533,370.434c0.471,-0.499 0.945,-0.996 1.424,-1.492c18.11,-18.745 39.873,-33.519 65.29,-44.321c25.417,-10.802 52.423,-16.203 81.017,-16.203c38.126,0 70.533,7.943 97.221,23.829c26.688,15.886 46.863,39.238 60.525,70.056c13.662,30.818 20.493,68.15 20.493,111.995l0,314.538l-193.489,0l0,-298.335c0,-13.979 -2.224,-25.735 -6.672,-35.266c-4.448,-9.531 -11.12,-16.839 -20.016,-21.922c-8.896,-5.083 -19.381,-7.625 -31.454,-7.625c-9.531,0 -18.269,1.43 -26.212,4.289c-7.943,2.859 -14.774,7.149 -20.493,12.867c-5.719,5.719 -10.167,12.073 -13.344,19.063c-3.177,6.99 -4.766,14.933 -4.766,23.829l0,303.1l-193.489,0l0,-509.933l179.191,0l4.771,51.532Z" style="fill:#212121;"/></g><g><path d="M316.584,463.246l-0,536.754l-216.584,0c-26.522,-0 -51.957,-10.536 -70.711,-29.289c-18.754,-18.754 -29.289,-44.189 -29.289,-70.711l0,-799.984c-0,-23.893 8.551,-46.905 23.958,-64.944l292.626,428.174Z" style="fill:#00bce7;stroke:#00bcd4;stroke-width:0.42px;"/><path d="M316.584,-0l366.832,536.746l0,463.223l218.346,0l-0.3,0.005l-218.046,0.011l-366.832,-536.754l-0,-463.231Z" style="fill:#ffbc37;stroke:#ffca28;stroke-width:0.42px;"/><path d="M23.958,35.056c1.695,-1.984 3.473,-3.908 5.331,-5.767c18.754,-18.754 44.189,-29.289 70.711,-29.289l216.584,0l0,463.231l-292.626,-428.174Z" style="fill:#4caf50;stroke:#4caf50;stroke-width:0.42px;"/><path d="M683.416,536.746l0,-536.746l216.584,0c26.522,0 51.957,10.536 70.711,29.289c18.754,18.754 29.289,44.189 29.289,70.711l0,799.984c0,23.89 -8.549,46.899 -23.953,64.937l-292.631,-428.176Z" style="fill:#f44336;stroke:#f44336;stroke-width:0.42px;"/><path d="M976.047,964.953c-1.697,1.987 -3.476,3.913 -5.337,5.773c-18.338,18.338 -43.065,28.818 -68.949,29.274l-218.346,-0l-0,-463.223l292.631,428.176Z" style="fill:#ff9800;stroke:#ff9800;stroke-width:0.42px;"/></g></g></svg>