<?xml version="1.0" encoding="UTF-8" standalone="no"?><!DOCTYPE svg PUBLIC "-//W3C//DTD SVG 1.1//EN" "http://www.w3.org/Graphics/SVG/1.1/DTD/svg11.dtd"><svg width="100%" height="100%" viewBox="0 0 1000 1000" version="1.1" xmlns="http://www.w3.org/2000/svg" xmlns:xlink="http://www.w3.org/1999/xlink" xml:space="preserve" xmlns:serif="http://www.serif.com/" style="fill-rule:evenodd;clip-rule:evenodd;stroke-linejoin:round;stroke-miterlimit:2;"><rect id="Isotipo" x="0" y="0" width="1000" height="1000" style="fill:none;"/><g id="Isotipo1" serif:id="Isotipo"><g id="Isotype"><path d="M683.416,1000l-430.175,-629.454l63.343,-370.546l424.839,621.628l-58.008,378.372Z" style="fill:#ffca28;"/><path d="M316.584,355.214l-0,644.786l-216.584,0c-26.522,-0 -51.957,-10.536 -70.711,-29.289c-18.754,-18.754 -29.289,-44.189 -29.289,-70.711l0,-799.984c-0,-19.404 5.64,-38.237 16.011,-54.291c2.399,-3.714 5.052,-7.279 7.947,-10.668c1.695,-1.984 3.473,-3.908 5.331,-5.767c3.457,-3.457 7.142,-6.635 11.018,-9.52l276.276,335.444Z" style="fill:#00bcd4;"/><path d="M23.958,35.056c1.695,-1.984 3.473,-3.908 5.331,-5.767c18.754,-18.754 44.189,-29.289 70.711,-29.289l216.584,0l0,463.231l-292.626,-428.174Z" style="fill:#4caf50;"/><path d="M683.416,652.3l-0,-652.3l216.584,0c26.522,0 51.957,10.536 70.711,29.289c18.754,18.754 29.289,44.189 29.289,70.711l0,799.984c0,17.996 -4.851,35.509 -13.828,50.765c-2.941,4.997 -6.324,9.752 -10.125,14.203c-1.697,1.987 -3.476,3.913 -5.337,5.773c-2.225,2.225 -4.544,4.334 -6.948,6.324l-280.347,-324.751Z" style="fill:#f44336;"/><path d="M683.416,536.746l292.631,428.207c-1.697,1.987 -3.476,3.913 -5.337,5.773c-18.338,18.338 -43.065,28.818 -68.949,29.274l-218.346,-0l0,-463.254Z" style="fill:#ff9800;"/></g></g></svg>