<?xml version="1.0" encoding="UTF-8" standalone="no"?><!DOCTYPE svg PUBLIC "-//W3C//DTD SVG 1.1//EN" "http://www.w3.org/Graphics/SVG/1.1/DTD/svg11.dtd"><svg width="100%" height="100%" viewBox="0 0 1000 1000" version="1.1" xmlns="http://www.w3.org/2000/svg" xmlns:xlink="http://www.w3.org/1999/xlink" xml:space="preserve" xmlns:serif="http://www.serif.com/" style="fill-rule:evenodd;clip-rule:evenodd;stroke-linecap:round;stroke-linejoin:round;stroke-miterlimit:1.5;"><rect id="Isotipo" x="0" y="0" width="1000" height="1000" style="fill:none;"/><clipPath id="_clip1"><rect x="0" y="0" width="1000" height="1000"/></clipPath><g clip-path="url(#_clip1)"><g><path d="M316.584,463.246l-0,536.754l-216.584,0c-26.522,-0 -51.957,-10.536 -70.711,-29.289c-18.754,-18.754 -29.289,-44.189 -29.289,-70.711l0,-799.984c-0,-23.893 8.551,-46.905 23.958,-64.944l292.626,428.174Z" style="fill:#00bcd4;stroke:#00bcd4;stroke-width:0.42px;"/><path d="M316.584,0l366.832,536.746l0,463.223l218.346,0l-0.3,0.005l-218.046,0.011l-366.832,-536.754l-0,-463.231Z" style="fill:#ffca28;stroke:#ffca28;stroke-width:0.42px;"/><path d="M23.958,35.056c1.695,-1.984 3.473,-3.908 5.331,-5.767c18.754,-18.754 44.189,-29.289 70.711,-29.289l216.584,0l0,463.231l-292.626,-428.174Z" style="fill:#4caf50;stroke:#4caf50;stroke-width:0.42px;"/><path d="M683.416,536.746l0,-536.746l216.584,0c26.522,0 51.957,10.536 70.711,29.289c18.754,18.754 29.289,44.189 29.289,70.711l0,799.984c0,23.89 -8.549,46.899 -23.953,64.937l-292.631,-428.176Z" style="fill:#f44336;stroke:#f44336;stroke-width:0.42px;"/><path d="M976.047,964.953c-1.697,1.987 -3.476,3.913 -5.337,5.773c-18.338,18.338 -43.065,28.818 -68.949,29.274l-218.346,-0l-0,-463.223l292.631,428.176Z" style="fill:#ff9800;stroke:#ff9800;stroke-width:0.42px;"/></g></g></svg>